<?xml version="1.0" standalone="no"?>
<!DOCTYPE svg PUBLIC "-//W3C//DTD SVG 20010904//EN"
 "http://www.w3.org/TR/2001/REC-SVG-20010904/DTD/svg10.dtd">
<svg version="1.0" xmlns="http://www.w3.org/2000/svg"
 width="512.000000pt" height="512.000000pt" viewBox="0 0 512.000000 512.000000"
 preserveAspectRatio="xMidYMid meet">
<metadata>
Created by potrace 1.14, written by Peter Selinger 2001-2017
</metadata>
<g transform="translate(0.000000,512.000000) scale(0.100000,-0.100000)"
fill="#000000" stroke="none">
<path d="M870 4793 c-286 -50 -461 -211 -537 -493 -4 -14 -8 -788 -9 -1720 -2
-1741 -1 -1767 35 -1845 5 -11 19 -42 32 -70 13 -27 29 -56 36 -63 7 -7 13
-16 13 -20 0 -12 72 -86 120 -124 78 -61 191 -108 306 -127 29 -4 810 -7 1736
-7 l1683 1 80 27 c235 80 384 250 429 488 9 50 12 461 10 1735 -1 1667 -1
1670 -22 1748 -61 225 -195 371 -412 449 l-65 23 -1705 1 c-938 1 -1716 -1
-1730 -3z"/>
</g>
</svg>
